<?xml version="1.0" standalone="no"?>
<!DOCTYPE svg PUBLIC "-//W3C//DTD SVG 20010904//EN"
 "http://www.w3.org/TR/2001/REC-SVG-20010904/DTD/svg10.dtd">
<svg version="1.0" xmlns="http://www.w3.org/2000/svg"
 width="300.000000pt" height="299.000000pt" viewBox="0 0 300.000000 299.000000"
 preserveAspectRatio="xMidYMid meet">
<metadata>
Created by potrace 1.10, written by Peter Selinger 2001-2011
</metadata>
<g transform="translate(0.000000,299.000000) scale(0.100000,-0.100000)"
fill="#7621bc" stroke="none">
<path d="M2995 1495 c0 -825 1 -1161 2 -747 2 415 2 1090 0 1500 -1 411 -2 72
-2 -753z"/>
<path d="M1454 2968 c-3 -5 -28 -6 -60 -2 -64 8 -99 -10 -116 -57 -10 -30 -22
-37 -34 -18 -3 6 -21 17 -40 25 -39 17 -67 8 -123 -36 -24 -20 -56 -34 -87
-39 -37 -6 -58 -16 -85 -44 -22 -22 -47 -37 -61 -37 -13 0 -29 -5 -35 -11 -6
-6 -32 -13 -58 -14 -41 -3 -53 -10 -89 -47 -61 -64 -79 -97 -79 -143 0 -46 20
-89 65 -140 49 -56 105 -89 209 -123 106 -35 113 -37 104 -22 -12 19 -84 50
-115 50 -17 0 -29 4 -26 9 4 5 -2 7 -11 5 -21 -5 -89 30 -86 44 1 5 -5 9 -15
8 -9 0 -17 6 -17 14 -1 8 -6 14 -12 13 -16 -3 -54 47 -46 60 3 6 1 7 -5 3 -7
-4 -12 -4 -13 1 0 4 -3 17 -6 28 -13 54 -12 93 2 99 8 3 12 12 9 21 -6 14 6
20 29 16 5 -1 6 3 2 9 -3 5 -1 10 4 10 6 0 11 6 11 14 0 19 29 48 41 41 5 -4
9 -2 9 4 0 20 70 9 86 -13 8 -11 14 -16 14 -10 0 5 -5 15 -12 22 -18 18 -1 27
19 11 16 -13 17 -12 5 2 -11 14 -7 18 27 26 27 7 43 7 50 0 7 -7 8 -2 4 13 -5
19 -3 22 12 17 13 -6 16 -3 11 8 -8 21 51 46 93 41 17 -2 29 0 26 4 -8 12 72
69 108 75 11 3 27 -1 35 -8 8 -6 18 -10 21 -7 3 3 12 -20 18 -50 11 -49 12
-50 9 -12 -4 37 -2 42 17 43 12 1 25 1 30 0 4 0 7 11 7 25 0 29 33 64 61 64
14 0 19 -10 22 -47 l3 -48 2 48 c3 82 22 42 24 -51 l2 -87 3 75 c4 89 12 117
23 80 7 -22 8 -23 9 -4 1 24 19 41 39 38 6 -1 19 -2 27 -3 8 0 16 -11 16 -23
1 -13 3 -16 5 -8 6 19 54 43 54 27 0 -9 2 -9 8 -1 12 19 42 12 43 -10 0 -17 2
-18 7 -4 11 27 42 -3 47 -46 3 -20 7 -52 9 -71 3 -24 1 -33 -6 -29 -7 5 -9 -1
-4 -19 11 -46 -54 -224 -77 -210 -6 3 -7 1 -3 -5 9 -15 -22 -74 -35 -66 -6 3
-10 0 -8 -7 3 -28 -1 -38 -16 -33 -8 4 -15 1 -15 -6 0 -6 -4 -9 -8 -6 -5 3
-16 -11 -25 -30 -23 -46 -21 -58 2 -15 27 50 35 13 10 -44 -11 -25 -21 -61
-22 -80 -2 -19 -13 -49 -27 -67 -13 -18 -17 -27 -8 -21 8 7 17 11 20 8 3 -3
13 5 24 17 15 18 16 20 2 9 -28 -21 -21 -3 16 43 19 23 69 104 112 181 86 156
133 229 142 221 3 -4 0 -12 -6 -18 -7 -7 -12 -18 -12 -25 0 -7 -9 -22 -20 -33
-12 -12 -17 -26 -13 -36 4 -11 3 -15 -5 -10 -6 3 -16 -3 -22 -15 -8 -15 -9
-19 -1 -15 14 9 14 0 1 -25 -6 -10 -8 -19 -5 -19 2 0 19 28 36 63 17 34 39 71
48 81 9 11 10 16 4 12 -20 -11 -15 4 11 39 21 27 30 31 56 27 22 -3 30 -9 26
-19 -3 -8 -1 -11 4 -8 6 3 10 13 10 21 0 8 7 14 15 14 8 0 15 -5 15 -12 0 -6
2 -9 5 -6 3 3 24 -13 46 -35 27 -28 37 -43 29 -51 -5 -5 -10 -14 -10 -19 0 -5
9 1 20 14 12 15 23 20 27 14 5 -5 17 -15 27 -21 36 -20 36 -20 -63 -128 -20
-21 -29 -35 -21 -30 16 9 90 88 103 110 4 8 12 14 18 14 13 0 41 -68 34 -80
-4 -6 -1 -10 6 -10 13 0 28 -16 70 -79 18 -28 29 -38 29 -27 0 25 -18 55 -57
96 -18 19 -38 52 -43 72 -11 40 -66 92 -109 103 -14 4 -40 24 -58 45 -32 38
-33 38 -108 38 l-75 0 -34 -42 c-18 -22 -73 -112 -121 -199 -48 -87 -96 -168
-107 -180 l-19 -22 6 28 c8 38 54 136 109 232 63 108 98 220 97 312 0 78 -10
106 -44 125 -27 15 -214 20 -223 6z"/>
<path d="M1472 2890 c0 -19 2 -27 5 -17 2 9 2 25 0 35 -3 9 -5 1 -5 -18z"/>
<path d="M1322 2880 c0 -19 2 -27 5 -17 2 9 2 25 0 35 -3 9 -5 1 -5 -18z"/>
<path d="M1356 2865 c8 -37 14 -45 14 -19 0 10 -5 26 -10 34 -8 11 -9 7 -4
-15z"/>
<path d="M1571 2878 c0 -9 -4 -25 -7 -35 -5 -14 -4 -15 5 -7 7 7 11 22 8 35
-2 13 -5 16 -6 7z"/>
<path d="M1152 2845 c0 -11 4 -31 8 -45 6 -20 8 -21 8 -5 0 11 -4 31 -8 45 -6
20 -8 21 -8 5z"/>
<path d="M1297 2820 c3 -19 10 -102 14 -185 l7 -150 -2 160 c-2 97 -7 170 -14
185 -11 23 -12 22 -5 -10z"/>
<path d="M1461 2829 c0 -13 4 -33 9 -44 7 -14 8 -8 3 20 -7 46 -13 59 -12 24z"/>
<path d="M1595 2829 c2 -15 -2 -50 -11 -79 -8 -28 -13 -54 -10 -57 2 -3 10 15
16 38 6 24 15 57 21 73 5 16 7 32 4 34 -3 3 -5 -1 -6 -9 0 -9 -4 -6 -10 6 -8
17 -9 16 -4 -6z"/>
<path d="M1382 2810 c0 -19 2 -27 5 -17 2 9 2 25 0 35 -3 9 -5 1 -5 -18z"/>
<path d="M1115 2785 c4 -17 11 -34 16 -39 5 -5 4 5 -1 24 -12 42 -24 55 -15
15z"/>
<path d="M1000 2780 c0 -8 5 -22 10 -30 9 -13 10 -13 10 0 0 8 -5 22 -10 30
-9 13 -10 13 -10 0z"/>
<path d="M1452 2775 c0 -11 3 -29 8 -40 11 -25 11 1 0 35 -6 20 -8 21 -8 5z"/>
<path d="M1090 2764 c0 -8 -4 -12 -10 -9 -14 8 -13 7 16 -87 15 -46 26 -93 26
-105 0 -13 5 -23 10 -23 6 0 7 11 4 25 -17 70 -18 80 -6 65 10 -13 11 -13 7 0
-2 8 -9 14 -15 13 -13 -3 -24 43 -17 70 5 18 4 19 -5 7 -9 -12 -10 -7 -5 23 3
20 3 37 0 37 -3 0 -5 -7 -5 -16z"/>
<path d="M1616 2757 c-3 -14 -3 -33 1 -43 5 -14 9 -9 20 21 7 21 11 41 8 43
-3 3 -5 -1 -5 -9 0 -11 -2 -12 -9 -1 -6 10 -10 7 -15 -11z"/>
<path d="M1486 2739 c-8 -42 0 -50 9 -9 4 17 5 34 2 36 -2 3 -7 -10 -11 -27z"/>
<path d="M1175 2730 c4 -19 13 -40 21 -46 7 -6 14 -28 14 -50 1 -70 1 -74 10
-69 13 8 0 107 -16 126 -8 8 -14 22 -14 30 0 8 -5 21 -11 29 -7 11 -8 6 -4
-20z"/>
<path d="M1383 2715 c0 -27 2 -38 4 -22 2 15 2 37 0 50 -2 12 -4 0 -4 -28z"/>
<path d="M1361 2743 c0 -6 -4 -20 -7 -30 -5 -14 -4 -15 5 -7 7 7 11 20 8 30
-3 11 -5 14 -6 7z"/>
<path d="M1441 2725 c0 -11 4 -29 9 -40 9 -20 9 -20 9 0 0 11 -4 29 -9 40 -9
20 -9 20 -9 0z"/>
<path d="M1402 2700 c0 -19 2 -27 5 -17 2 9 2 25 0 35 -3 9 -5 1 -5 -18z"/>
<path d="M850 2698 c0 -3 11 -17 24 -32 21 -25 24 -26 30 -10 4 10 4 15 0 11
-4 -4 -18 3 -31 15 -13 12 -23 19 -23 16z"/>
<path d="M1016 2668 c25 -48 86 -139 91 -134 8 8 -31 75 -40 69 -6 -4 -8 0 -4
10 3 10 2 17 -3 17 -6 0 -18 16 -27 35 -9 19 -20 35 -25 35 -5 0 -1 -15 8 -32z"/>
<path d="M1158 2678 c-3 -17 -1 -25 5 -21 6 4 8 0 4 -10 -6 -16 21 -112 29
-104 2 2 -4 39 -14 83 -14 62 -19 73 -24 52z"/>
<path d="M735 2667 c10 -15 23 -26 30 -23 7 2 18 -1 25 -7 7 -7 2 3 -10 21
-27 36 -32 40 -23 15 6 -16 3 -15 -17 2 l-23 20 18 -28z"/>
<path d="M1258 2613 c-3 -43 -2 -98 1 -123 5 -31 8 -8 9 78 0 67 0 122 -2 122
-2 0 -5 -35 -8 -77z"/>
<path d="M800 2667 c0 -2 15 -16 33 -33 l32 -29 -29 33 c-28 30 -36 37 -36 29z"/>
<path d="M1496 2645 c-4 -15 -5 -30 -1 -33 3 -3 5 3 6 14 0 18 1 18 8 -1 5
-11 4 -23 -1 -26 -5 -3 -10 -10 -10 -15 0 -5 -4 -18 -8 -29 -11 -29 -23 -91
-17 -85 3 3 17 35 31 72 22 61 24 71 12 99 l-13 31 -7 -27z"/>
<path d="M1586 2654 c-4 -9 -4 -19 -1 -22 3 -3 5 0 5 7 0 7 5 9 10 6 6 -3 10
-2 10 4 0 18 -18 21 -24 5z"/>
<path d="M1392 2630 c0 -19 2 -27 5 -17 2 9 2 25 0 35 -3 9 -5 1 -5 -18z"/>
<path d="M1352 2620 c0 -19 2 -27 5 -17 2 9 2 25 0 35 -3 9 -5 1 -5 -18z"/>
<path d="M709 2622 c5 -10 18 -25 28 -33 12 -10 11 -5 -6 19 -24 35 -38 43
-22 14z"/>
<path d="M950 2618 c20 -16 19 -23 -2 -19 -11 1 -10 -17 1 -23 5 -3 11 0 14 8
6 14 30 16 43 3 4 -3 1 -15 -7 -24 -7 -10 -9 -15 -5 -11 5 4 16 2 25 -4 13
-10 14 -10 4 2 -8 9 -9 19 -2 32 5 10 6 18 2 17 -4 -1 -11 0 -15 1 -5 1 -11 3
-15 5 -24 6 -42 18 -38 24 2 4 -3 8 -12 8 -12 0 -11 -5 7 -19z"/>
<path d="M1835 2600 c-9 -16 -13 -30 -11 -30 3 0 12 14 21 30 9 17 13 30 11
30 -3 0 -12 -13 -21 -30z"/>
<path d="M1930 2588 c-56 -72 -57 -73 -41 -64 9 6 12 5 9 -5 -3 -8 -11 -13
-19 -12 -8 1 -25 -13 -39 -30 -22 -29 -22 -30 -2 -13 12 11 22 14 22 8 0 -6
-4 -14 -10 -17 -5 -3 -15 -16 -21 -28 -13 -26 -6 -18 44 45 21 26 36 53 35 60
-2 7 2 12 8 11 7 -1 20 7 29 17 12 14 14 20 5 20 -9 0 -8 7 4 25 25 39 13 30
-24 -17z"/>
<path d="M1577 2608 c-24 -19 -40 -69 -27 -82 8 -8 9 -6 4 8 -5 13 -4 17 4 12
7 -4 12 -5 12 -3 0 3 7 21 15 41 17 40 16 42 -8 24z"/>
<path d="M1784 2577 c-11 -18 -29 -44 -38 -59 -10 -16 -16 -28 -12 -28 7 0 78
111 74 115 -2 2 -13 -11 -24 -28z"/>
<path d="M720 2577 c0 -2 15 -16 33 -33 l32 -29 -29 33 c-28 30 -36 37 -36 29z"/>
<path d="M905 2569 c-4 -6 -4 -13 -1 -16 3 -4 6 0 6 7 0 9 9 5 25 -10 36 -34
34 -61 -2 -29 l-28 24 25 -30 c30 -36 42 -45 51 -39 4 2 33 -24 65 -58 31 -35
51 -54 43 -43 -19 28 -170 205 -174 205 -2 0 -7 -5 -10 -11z"/>
<path d="M1351 2562 c-6 -12 -11 -31 -10 -44 0 -14 3 -17 6 -8 2 8 9 25 15 37
14 29 3 42 -11 15z"/>
<path d="M833 2532 c16 -16 28 -33 27 -37 -1 -4 2 -10 6 -13 4 -4 4 -1 0 6 -4
6 -3 12 1 12 13 0 85 -62 79 -68 -5 -5 52 -52 62 -52 13 0 -82 92 -138 134
-47 35 -57 40 -37 18z"/>
<path d="M1397 2540 c3 -11 9 -20 13 -20 5 0 6 9 3 20 -3 11 -9 20 -13 20 -5
0 -6 -9 -3 -20z"/>
<path d="M669 2532 c6 -12 16 -24 22 -28 8 -4 8 -1 0 14 -6 12 -16 24 -22 28
-8 4 -8 1 0 -14z"/>
<path d="M1036 2535 c-3 -9 -2 -14 3 -10 5 3 23 -14 40 -37 32 -44 40 -64 19
-52 -9 5 -9 3 1 -9 7 -9 17 -14 22 -11 10 6 -54 127 -69 132 -5 1 -12 -4 -16
-13z"/>
<path d="M1774 2508 c-41 -60 -46 -68 -40 -68 7 0 78 102 73 106 -2 3 -17 -15
-33 -38z"/>
<path d="M1959 2503 c-48 -53 -73 -83 -67 -83 3 0 28 27 57 60 58 67 64 81 10
23z"/>
<path d="M1130 2526 c0 -2 7 -23 15 -46 8 -23 12 -47 8 -53 -3 -5 -1 -7 4 -4
6 4 13 -3 16 -15 4 -12 9 -19 13 -15 8 8 -37 137 -48 137 -4 0 -8 -2 -8 -4z"/>
<path d="M1980 2485 c-24 -25 -42 -45 -39 -45 3 0 25 20 49 45 24 25 42 45 39
45 -3 0 -25 -20 -49 -45z"/>
<path d="M769 2497 c26 -28 31 -32 31 -19 0 4 -13 16 -28 26 l-27 19 24 -26z"/>
<path d="M1377 2499 c-3 -12 -3 -36 0 -53 l6 -30 14 39 c11 33 11 41 0 53 -12
11 -15 10 -20 -9z"/>
<path d="M1518 2501 c-22 -26 -41 -62 -35 -68 3 -2 16 14 29 36 14 23 28 38
33 34 4 -5 5 -2 1 5 -9 15 -9 16 -28 -7z"/>
<path d="M734 2498 c3 -10 0 -18 -6 -18 -21 0 1 -13 24 -14 13 -1 22 -7 21
-13 -3 -14 8 -22 82 -62 33 -17 51 -26 41 -19 -27 18 -149 120 -159 132 -5 7
-7 4 -3 -6z"/>
<path d="M1826 2503 c-4 -5 -13 -8 -19 -8 -7 0 -12 -6 -12 -12 0 -7 -19 -39
-43 -70 -40 -53 -40 -55 -7 -18 45 49 98 115 93 115 -3 0 -8 -3 -12 -7z"/>
<path d="M1037 2476 c10 -13 19 -23 21 -21 7 6 -19 45 -29 45 -5 0 -2 -11 8
-24z"/>
<path d="M670 2456 c19 -21 44 -42 55 -48 11 -6 18 -9 15 -6 -3 2 -27 24 -55
48 -48 42 -48 42 -15 6z"/>
<path d="M1216 2464 c7 -37 16 -47 12 -12 -2 15 -7 30 -11 34 -3 3 -4 -6 -1
-22z"/>
<path d="M1337 2473 c-4 -3 -7 -18 -6 -32 1 -26 1 -25 10 3 9 31 7 41 -4 29z"/>
<path d="M1699 2443 c-28 -48 -188 -254 -209 -270 -8 -6 -18 -9 -22 -7 -4 2
-10 -1 -14 -7 -4 -8 -9 -7 -16 2 -6 11 -8 9 -6 -6 2 -11 -2 -19 -8 -18 -7 1
-20 -8 -30 -20 l-19 -22 23 19 c12 11 22 15 22 11 0 -5 11 2 25 15 15 14 25
18 25 11 0 -23 48 29 134 144 83 112 132 185 123 185 -3 0 -16 -17 -28 -37z"/>
<path d="M1430 2461 c0 -7 -4 -9 -10 -6 -5 3 -10 0 -10 -7 0 -7 -3 -24 -6 -38
-4 -18 1 -15 16 13 12 22 19 41 16 45 -3 3 -6 0 -6 -7z"/>
<path d="M1641 2416 c-11 -23 -29 -52 -38 -66 -10 -13 -12 -21 -6 -17 17 10
76 97 67 97 -4 0 0 6 10 13 15 11 15 14 4 14 -9 0 -25 -19 -37 -41z"/>
<path d="M1307 2444 c-4 -4 -7 -14 -7 -23 0 -11 3 -12 11 -4 6 6 10 16 7 23
-2 6 -7 8 -11 4z"/>
<path d="M1355 2420 c-4 -17 -5 -34 -2 -36 2 -3 7 10 11 27 3 18 4 34 2 36 -2
3 -7 -10 -11 -27z"/>
<path d="M1766 2391 l-40 -46 44 42 c24 23 42 44 40 46 -3 2 -23 -17 -44 -42z"/>
<path d="M1262 2386 c2 -25 6 -46 11 -46 11 0 8 78 -3 85 -7 4 -9 -10 -8 -39z"/>
<path d="M905 2395 c30 -25 59 -39 51 -26 -4 6 -22 18 -39 27 -30 14 -31 14
-12 -1z"/>
<path d="M1127 2403 c-3 -5 3 -22 14 -39 10 -16 19 -22 19 -14 -1 23 -26 64
-33 53z"/>
<path d="M1227 2378 c3 -18 10 -44 15 -58 7 -20 7 -19 3 9 -3 18 -5 44 -5 57
0 13 -4 24 -10 24 -5 0 -7 -14 -3 -32z"/>
<path d="M1420 2343 c-13 -37 -31 -89 -41 -115 -10 -27 -16 -48 -13 -48 3 0
10 13 15 30 6 17 16 27 22 23 6 -4 7 -1 2 6 -4 7 5 46 20 87 15 41 25 77 22
80 -3 3 -15 -25 -27 -63z"/>
<path d="M1366 2374 c-4 -14 -5 -28 -3 -31 3 -2 8 8 11 23 4 14 5 28 3 31 -3
2 -8 -8 -11 -23z"/>
<path d="M1893 2385 c-179 -33 -356 -216 -394 -407 -14 -68 6 -140 49 -180 46
-44 67 -44 91 -2 12 20 21 38 19 39 -2 1 -20 10 -40 20 -29 13 -40 25 -47 54
-26 99 -13 163 51 261 73 111 190 165 346 158 79 -3 96 -7 176 -47 152 -74
211 -162 210 -316 0 -70 -4 -89 -33 -147 -22 -47 -50 -83 -89 -119 -73 -65
-101 -79 -171 -86 -63 -6 -121 -41 -121 -74 0 -23 3 -23 59 -3 80 27 193 -6
232 -69 47 -77 43 -149 -10 -209 -22 -25 -35 -31 -65 -30 -20 1 -51 11 -68 23
-30 22 -31 23 -16 90 7 30 -24 12 -57 -35 -37 -53 -42 -72 -22 -96 46 -57 126
-66 196 -20 95 60 146 141 145 227 0 67 -41 127 -109 162 l-47 25 33 28 c120
102 170 171 205 287 44 146 -28 329 -156 394 -139 70 -254 92 -367 72z m427
-171 c25 -30 46 -65 47 -77 3 -22 3 -22 -7 1 -5 13 -26 40 -45 60 -19 20 -35
40 -35 45 0 4 -6 7 -14 7 -8 0 -18 5 -21 10 -3 6 2 10 12 10 10 -1 38 -26 63
-56z m-740 -369 c16 -17 19 -25 9 -25 -19 1 -49 24 -49 39 0 18 15 13 40 -14z
m601 -271 c15 -18 -4 -19 -51 -2 -29 10 -31 12 -15 18 24 9 51 2 66 -16z m76
-58 c26 -25 49 -108 27 -99 -8 3 -14 12 -14 20 0 20 -31 74 -55 95 -20 18 -20
18 0 11 11 -4 30 -16 42 -27z m-207 -256 c0 -5 9 -17 19 -27 11 -11 17 -24 13
-30 -12 -19 -65 28 -57 50 8 18 25 24 25 7z"/>
<path d="M820 2386 c0 -3 29 -20 64 -39 40 -21 63 -29 62 -20 -1 7 -8 19 -16
26 -10 9 -11 9 -6 0 10 -18 2 -16 -54 12 -28 14 -50 23 -50 21z"/>
<path d="M1010 2345 c19 -19 36 -35 39 -35 3 0 -10 16 -29 35 -19 19 -36 35
-39 35 -3 0 10 -16 29 -35z"/>
<path d="M1193 2345 c6 -19 12 -33 15 -31 7 7 -9 66 -18 66 -4 0 -3 -16 3 -35z"/>
<path d="M1060 2325 c19 -19 36 -35 39 -35 3 0 -10 16 -29 35 -19 19 -36 35
-39 35 -3 0 10 -16 29 -35z"/>
<path d="M976 2342 c5 -4 27 -23 49 -42 l40 -35 -40 43 c-21 23 -44 42 -49 42
-6 0 -6 -3 0 -8z"/>
<path d="M1470 2331 c0 -6 1 -12 3 -14 1 -2 -6 -11 -15 -21 -20 -19 -23 -36
-9 -36 10 0 21 27 20 44 0 5 5 12 11 16 9 5 9 9 1 14 -6 4 -11 2 -11 -3z"/>
<path d="M1175 2315 c4 -11 8 -28 9 -37 0 -9 4 -14 8 -12 12 8 9 27 -9 49 -16
20 -16 20 -8 0z"/>
<path d="M1260 2308 c0 -15 -3 -28 -7 -30 -5 -1 -6 -21 -3 -43 6 -39 6 -38 14
23 4 35 5 66 2 69 -3 4 -6 -5 -6 -19z"/>
<path d="M966 2312 c-3 -5 3 -17 13 -27 17 -15 19 -15 17 -1 -3 22 -22 40 -30
28z"/>
<path d="M1291 2298 c0 -7 4 -22 9 -33 8 -18 9 -17 9 7 1 15 -3 30 -9 33 -5 3
-10 0 -9 -7z"/>
<path d="M1827 2275 c-20 -14 -37 -28 -37 -30 0 -6 69 36 76 46 8 14 2 11 -39
-16z"/>
<path d="M1927 2269 c-9 -5 -22 -7 -27 -4 -6 4 -9 1 -8 -7 2 -7 -4 -12 -13
-12 -9 1 -16 -5 -16 -12 0 -9 16 -5 51 13 28 14 53 27 55 29 9 9 -25 3 -42 -7z"/>
<path d="M2005 2270 c7 -11 -72 -53 -85 -45 -9 6 -25 -13 -17 -21 5 -5 82 32
115 54 11 7 10 10 -3 15 -9 4 -13 3 -10 -3z"/>
<path d="M1720 2233 l-25 -26 33 22 c31 22 39 32 25 30 -5 0 -19 -12 -33 -26z"/>
<path d="M2049 2253 c-1 -5 -1 -11 0 -15 0 -3 -20 -16 -44 -28 -25 -12 -42
-26 -39 -32 4 -6 9 -7 13 -1 11 18 51 34 64 27 6 -4 8 -3 4 1 -4 5 7 17 25 27
l33 18 -29 -6 c-20 -5 -27 -4 -22 5 4 6 5 11 2 11 -3 0 -7 -3 -7 -7z"/>
<path d="M942 2230 c-140 -33 -296 -180 -354 -335 -20 -52 -23 -79 -23 -205 0
-143 0 -146 33 -212 38 -79 106 -144 161 -154 20 -4 55 -15 77 -25 98 -41 265
-10 368 70 71 55 109 101 145 175 47 94 62 158 63 254 1 133 -39 230 -136 330
-70 74 -132 104 -204 101 -31 -2 -66 0 -77 3 -11 3 -35 2 -53 -2z m48 -41
c-14 -26 -38 -35 -53 -20 -13 13 17 40 46 41 15 0 16 -3 7 -21z m173 -13 c68
-29 200 -188 200 -242 0 -13 3 -24 8 -24 15 0 22 -69 9 -85 -7 -8 -16 -15 -20
-15 -7 0 -18 47 -23 100 -1 14 -8 29 -14 33 -7 4 -13 12 -13 18 0 12 -49 87
-75 114 -40 41 -112 95 -129 95 -10 0 -14 5 -11 10 8 14 30 13 68 -4z m-243
-21 c0 -3 -16 -25 -35 -51 -19 -25 -38 -56 -41 -70 -12 -45 6 -96 47 -137 38
-39 40 -39 103 -35 40 2 74 11 92 23 16 11 32 19 36 17 10 -3 49 49 43 58 -3
5 -1 20 4 33 6 15 6 37 1 54 -8 25 -8 24 -9 -17 -1 -54 -31 -107 -67 -120 -50
-20 -85 -12 -120 26 -30 31 -34 42 -34 87 0 57 24 108 60 127 16 9 34 9 72 -1
43 -10 63 -23 122 -83 103 -103 138 -185 135 -313 -3 -97 -16 -149 -64 -240
-58 -113 -143 -173 -256 -181 -147 -10 -292 80 -341 213 -19 51 -22 78 -21
174 3 123 19 196 60 270 40 72 95 133 138 152 38 18 75 24 75 14z m-19 -137
c1 -13 1 -27 0 -32 -1 -5 5 -16 12 -25 8 -9 18 -27 22 -41 l8 -25 -25 25 c-38
37 -56 120 -27 120 5 0 10 -10 10 -22z m481 -269 c-7 -11 -10 -25 -6 -32 5 -9
4 -9 -5 -1 -7 6 -9 23 -5 43 5 23 10 29 18 21 7 -7 7 -16 -2 -31z m-762 -164
c0 -12 5 -26 11 -32 5 -5 11 -24 11 -41 1 -17 4 -30 8 -29 8 3 70 -68 70 -81
0 -6 6 -12 13 -15 6 -2 9 -8 5 -12 -4 -4 -13 -2 -20 4 -7 6 -22 19 -33 29 -25
21 -59 77 -70 117 -13 45 -16 113 -5 95 6 -8 10 -24 10 -35z"/>
<path d="M1090 2126 c0 -4 5 -17 12 -29 6 -12 17 -42 24 -67 9 -33 12 -38 13
-19 1 33 -17 89 -35 109 -8 8 -14 11 -14 6z"/>
<path d="M1171 1927 l-43 -62 50 49 c29 28 48 54 45 62 -3 8 -6 14 -7 14 0 0
-21 -29 -45 -63z"/>
<path d="M1154 1868 c-27 -29 -53 -51 -59 -50 -5 2 -7 0 -2 -4 10 -10 -84
-105 -96 -97 -6 3 -7 2 -4 -4 4 -6 -4 -20 -18 -33 -23 -22 -24 -22 -18 -1 3
11 10 18 16 14 6 -4 8 0 4 9 -3 9 6 29 23 49 16 19 29 29 30 23 0 -6 -7 -17
-15 -24 -8 -7 -15 -17 -15 -23 0 -13 58 40 71 66 7 13 6 17 -3 15 -7 -2 -12 4
-10 12 1 8 -12 -1 -29 -20 -17 -19 -59 -63 -92 -98 -33 -34 -62 -72 -64 -84
-3 -21 -3 -21 19 -2 13 10 8 2 -11 -18 -19 -21 -37 -35 -41 -33 -8 5 -28 -14
-29 -27 -1 -5 -3 -8 -6 -8 -3 0 -10 0 -17 0 -6 0 1 14 17 30 18 19 31 26 36
19 5 -8 8 -8 13 0 4 6 2 11 -5 11 -7 0 -5 8 6 20 10 11 14 20 8 20 -5 0 -34
-26 -64 -57 -63 -67 -90 -100 -71 -89 11 6 17 -5 13 -26 -2 -17 18 -7 41 20
13 15 53 54 89 87 109 101 293 278 279 270 -8 -5 -11 -3 -8 5 2 7 15 15 29 16
13 2 49 8 79 12 48 8 51 10 20 12 -19 2 -48 2 -64 1 -16 -2 -26 2 -22 7 3 5
17 10 32 10 14 0 31 5 37 11 13 13 -2 14 -23 1 -9 -5 -17 -5 -21 1 -3 5 -28
-14 -55 -43z m-103 -81 c-13 -13 -26 -3 -16 12 3 6 11 8 17 5 6 -4 6 -10 -1
-17z m-261 -282 c-6 -8 -20 -13 -30 -12 -18 1 -18 3 -4 18 19 21 51 14 34 -6z"/>
<path d="M1241 1803 c-16 -16 -42 -36 -56 -47 -15 -10 -36 -34 -47 -53 -11
-18 -33 -40 -49 -49 -38 -19 -89 -90 -89 -123 0 -40 -22 -94 -53 -130 -30 -36
-35 -53 -12 -45 8 4 15 13 15 21 0 10 7 13 23 8 15 -4 18 -4 8 3 -17 12 -4 35
16 27 12 -4 13 -2 5 8 -7 8 -7 18 -2 27 5 8 6 18 4 22 -3 4 0 8 6 8 6 0 8 5 4
11 -4 7 -1 10 7 7 8 -3 14 -10 14 -16 0 -6 7 -17 15 -24 12 -11 12 -11 1 5
-19 24 2 22 30 -4 18 -16 20 -19 6 -15 -12 4 -16 2 -11 -6 5 -8 2 -9 -9 -5
-24 9 -21 0 4 -14 17 -9 20 -8 14 2 -6 9 -4 11 7 6 33 -12 11 28 -30 56 -45
30 -53 57 -27 91 14 18 16 18 42 2 l28 -17 -24 20 c-19 17 -21 24 -11 36 7 8
17 12 23 8 6 -3 7 -1 3 5 -4 7 -2 12 5 12 6 0 20 10 30 22 l19 21 30 -28 c37
-35 30 -48 -7 -14 -15 13 -21 16 -14 6 8 -10 33 -32 55 -49 37 -29 39 -30 17
-5 -14 15 -20 27 -14 27 5 0 13 -3 17 -7 3 -4 14 -8 22 -9 12 -2 10 4 -7 22
-23 25 -35 32 -24 14 3 -5 2 -10 -4 -10 -14 0 -32 35 -23 44 3 4 -1 4 -9 1 -9
-3 -21 0 -28 8 -9 12 -4 21 28 48 78 68 93 79 106 79 8 0 17 5 20 10 14 22
-46 8 -74 -17z"/>
<path d="M1218 1730 c7 -8 18 -15 25 -15 7 0 11 -8 9 -17 -1 -9 2 -19 8 -23 6
-4 7 1 3 11 -5 13 -3 15 8 9 8 -5 5 1 -5 13 -11 12 -21 20 -24 17 -3 -3 -12 1
-21 7 -14 10 -14 10 -3 -2z"/>
<path d="M1130 1633 c1 -4 20 -21 43 -37 23 -16 36 -22 28 -12 -19 23 -71 59
-71 49z"/>
<path d="M1121 1607 c2 -2 20 -14 39 -26 l35 -23 -30 26 c-16 14 -34 26 -39
26 -5 0 -7 -1 -5 -3z"/>
<path d="M1090 1597 c0 -2 20 -18 45 -37 24 -18 42 -36 40 -40 -3 -4 3 -14 12
-21 14 -12 16 -12 8 0 -6 11 -4 13 8 8 28 -11 20 -1 -35 40 -58 43 -78 56 -78
50z"/>
<path d="M1043 1553 c3 -5 27 -24 54 -43 26 -19 41 -26 33 -15 -14 17 -13 18
3 12 24 -9 21 -4 -14 22 -30 22 -85 40 -76 24z"/>
<path d="M1035 1394 c23 -17 32 -18 32 -1 0 6 -12 13 -26 14 -24 1 -25 1 -6
-13z"/>
<path d="M1815 2216 c-13 -9 -15 -15 -7 -20 7 -4 12 -2 12 4 0 6 4 9 9 5 5 -3
12 -1 15 4 10 16 -10 21 -29 7z"/>
<path d="M2214 2188 c1 -21 6 -38 11 -38 6 0 3 -5 -5 -10 -10 -6 -11 -10 -2
-10 7 0 12 -13 12 -30 0 -16 -4 -30 -8 -30 -4 0 -8 -9 -8 -20 0 -11 4 -20 8
-20 15 0 8 -19 -9 -23 -17 -4 -17 -5 -1 -6 19 -1 32 -36 26 -72 -3 -23 -6 -24
-133 -29 l-130 -6 126 -2 c69 -1 128 -5 131 -8 9 -8 -10 -66 -24 -76 -7 -4 -9
-8 -5 -8 5 0 -3 -21 -18 -46 -27 -46 -50 -108 -36 -100 4 3 28 47 54 98 44 86
48 98 48 168 0 147 -7 236 -23 270 l-15 35 1 -37z"/>
<path d="M1745 2190 c-3 -5 -3 -10 1 -10 3 0 -4 -9 -17 -19 -13 -11 -21 -22
-17 -26 3 -4 17 5 29 19 13 15 29 24 36 22 20 -8 15 2 -6 14 -13 7 -22 7 -26
0z"/>
<path d="M1830 2180 c-45 -24 -28 -24 25 0 22 10 33 19 25 19 -8 0 -31 -8 -50
-19z"/>
<path d="M2113 2190 c-35 -14 -27 -20 10 -8 17 6 34 13 36 14 8 7 -24 3 -46
-6z"/>
<path d="M1342 2144 c-7 -14 -8 -23 -2 -19 5 3 10 1 10 -4 0 -6 5 -11 10 -11
6 0 10 7 10 16 0 8 -5 12 -11 8 -8 -4 -9 0 -4 15 9 29 1 26 -13 -5z"/>
<path d="M1482 2127 c-22 -23 -28 -34 -17 -34 8 0 13 3 10 5 -3 3 7 18 22 34
15 15 25 28 22 28 -3 0 -20 -15 -37 -33z"/>
<path d="M1772 2123 c-57 -20 -49 -25 13 -9 27 6 45 15 40 18 -6 3 -29 -1 -53
-9z"/>
<path d="M1890 2104 c-70 -48 -105 -87 -138 -154 -23 -47 -26 -66 -26 -150 0
-79 5 -113 33 -205 19 -60 44 -135 56 -165 63 -151 24 -275 -89 -287 -134 -16
-224 78 -185 192 16 45 48 58 78 31 16 -15 19 -14 37 7 48 54 48 56 19 67 -48
18 -94 2 -150 -54 -43 -42 -54 -61 -65 -107 -14 -65 -10 -91 22 -139 27 -40
98 -68 174 -69 43 -1 61 5 101 32 73 49 133 112 144 149 5 19 27 52 50 73 124
119 129 126 129 168 0 43 -11 44 -16 1 -4 -34 -10 -40 -28 -25 -17 15 -72 23
-58 9 4 -4 18 -10 30 -13 39 -7 47 -17 27 -32 -11 -7 -15 -13 -11 -13 4 0 0
-7 -8 -16 -9 -8 -21 -12 -27 -8 -7 4 -9 3 -6 -3 4 -6 -4 -18 -17 -27 -14 -8
-27 -25 -31 -36 -11 -34 -21 -15 -19 37 2 32 -4 58 -16 78 -22 36 -84 223
-101 303 -18 90 3 252 34 252 4 0 7 7 7 15 0 8 12 22 28 32 52 33 90 70 83 82
-5 8 -24 0 -61 -25z m-8 -699 c5 -24 4 -25 -12 -10 -10 9 -20 25 -23 35 -4 16
-2 18 13 10 10 -5 20 -21 22 -35z m-360 -185 c0 -5 1 -16 2 -22 2 -20 68 -64
108 -72 44 -8 56 -21 22 -24 -13 -1 -24 4 -24 11 0 8 -3 8 -9 -2 -8 -12 -13
-12 -35 2 -14 9 -32 17 -40 17 -18 0 -59 56 -51 70 3 5 1 10 -4 10 -6 0 -11 5
-11 10 0 6 9 10 20 10 11 0 21 -4 22 -10z"/>
<path d="M2150 2120 c0 -12 8 -12 35 0 18 8 17 9 -7 9 -16 1 -28 -3 -28 -9z"/>
<path d="M1385 2080 c-16 -16 -25 -30 -19 -29 8 0 60 59 52 59 -3 0 -17 -13
-33 -30z"/>
<path d="M1643 2073 c-35 -15 -61 -28 -59 -30 6 -6 90 18 96 26 3 4 14 13 25
19 35 20 2 12 -62 -15z"/>
<path d="M1432 2014 c-13 -14 -9 -34 8 -34 12 0 22 32 13 41 -4 4 -14 1 -21
-7z"/>
<path d="M2030 2000 c14 -4 32 -8 40 -9 13 -1 13 0 0 9 -8 5 -26 9 -40 9 l-25
-1 25 -8z"/>
<path d="M2096 2001 c-3 -4 6 -7 20 -5 35 3 43 14 11 14 -14 0 -28 -4 -31 -9z"/>
<path d="M1603 1993 c9 -2 25 -2 35 0 9 3 1 5 -18 5 -19 0 -27 -2 -17 -5z"/>
<path d="M2780 1983 c-8 -3 -44 -35 -80 -72 -63 -63 -131 -125 -270 -243 -87
-74 -123 -116 -116 -135 5 -13 9 -13 23 -2 12 10 14 10 9 2 -14 -24 8 -13 44
21 80 78 337 287 360 293 33 8 80 41 80 56 0 23 -21 87 -28 86 -4 0 -14 -3
-22 -6z m11 -20 c-9 -4 -10 -7 -2 -12 8 -5 5 -13 -9 -26 -12 -11 -20 -13 -20
-6 0 7 -4 10 -10 6 -5 -3 -7 -12 -4 -19 3 -8 1 -17 -5 -21 -6 -3 -11 -1 -11 5
0 16 -18 3 -31 -23 -12 -22 -11 -22 9 -4 11 10 22 14 25 9 6 -8 -9 -23 -62
-67 -14 -11 -22 -14 -18 -8 13 21 -10 23 -29 2 -17 -19 -17 -20 2 -13 16 6 16
4 -5 -19 -19 -21 -27 -24 -38 -15 -10 8 -12 8 -8 -4 7 -17 -111 -125 -123
-113 -4 3 2 13 13 20 36 26 46 36 40 45 -3 6 1 7 10 4 16 -6 45 11 45 28 0 5
-10 4 -22 -2 -13 -6 -3 6 22 26 25 21 86 78 135 126 50 48 95 87 100 87 6 0 4
-3 -4 -6z m19 -52 c0 -23 -48 -57 -62 -43 -6 6 2 19 22 36 38 31 40 32 40 7z
m-383 -279 c-10 -10 -14 -22 -10 -25 7 -8 -36 -57 -50 -57 -6 0 -2 9 8 20 10
11 14 20 10 20 -5 0 4 14 20 30 31 32 49 42 22 12z"/>
<path d="M1678 1973 c12 -2 30 -2 40 0 9 3 -1 5 -23 4 -22 0 -30 -2 -17 -4z"/>
<path d="M1886 1972 c-3 -4 22 -9 55 -10 33 -1 59 3 59 8 0 12 -107 13 -114 2z"/>
<path d="M2073 1963 c20 -2 54 -2 75 0 20 2 3 4 -38 4 -41 0 -58 -2 -37 -4z"/>
<path d="M1668 1943 c12 -2 30 -2 40 0 9 3 -1 5 -23 4 -22 0 -30 -2 -17 -4z"/>
<path d="M2023 1943 c15 -2 37 -2 50 0 12 2 0 4 -28 4 -27 0 -38 -2 -22 -4z"/>
<path d="M1845 1911 c34 -14 128 -20 116 -8 -6 6 -39 12 -74 13 -38 2 -54 0
-42 -5z"/>
<path d="M1450 1860 c19 -13 30 -13 30 0 0 6 -10 10 -22 10 -19 0 -20 -2 -8
-10z"/>
<path d="M1460 1830 c0 -5 -8 -6 -17 -3 -12 5 -7 -6 14 -34 41 -51 71 -119 79
-183 4 -27 10 -47 15 -44 10 6 6 31 -24 129 -11 39 -20 77 -18 85 1 12 0 13
-8 1 -7 -11 -12 -9 -22 10 -7 13 -12 30 -11 37 2 6 0 12 -3 12 -3 0 -5 -4 -5
-10z"/>
<path d="M1870 1826 c0 -10 28 -13 41 -5 10 6 7 9 -13 9 -16 0 -28 -2 -28 -4z"/>
<path d="M1930 1810 l-25 -8 28 -1 c15 -1 27 4 27 9 0 6 -1 10 -2 9 -2 -1 -14
-5 -28 -9z"/>
<path d="M2065 1810 c-7 -11 9 -11 45 0 24 8 24 8 -7 9 -17 1 -35 -3 -38 -9z"/>
<path d="M1980 1790 c0 -12 8 -12 35 0 18 8 17 9 -7 9 -16 1 -28 -3 -28 -9z"/>
<path d="M2032 1781 c-10 -6 -8 -10 9 -14 13 -4 25 -4 28 -2 2 3 -2 5 -10 6
-8 0 -6 4 6 9 20 9 20 9 0 9 -11 0 -26 -3 -33 -8z"/>
<path d="M1430 1762 c0 -5 11 -34 24 -65 14 -30 22 -58 19 -61 -4 -3 -2 -6 4
-6 10 0 33 -76 39 -129 1 -13 8 -29 14 -35 26 -25 -18 172 -56 245 -23 46 -44
70 -44 51z"/>
<path d="M1861 1756 c8 -8 79 -35 79 -30 0 3 -16 12 -35 20 -33 14 -53 18 -44
10z"/>
<path d="M2010 1725 c19 -7 42 -13 50 -13 8 0 -1 6 -20 13 -19 7 -42 13 -50
13 -8 0 1 -6 20 -13z"/>
<path d="M1830 1726 c0 -6 63 -48 78 -51 9 -2 31 -8 47 -15 51 -19 13 5 -57
38 -38 17 -68 30 -68 28z"/>
<path d="M1635 1710 c-8 -12 2 -30 17 -30 7 0 7 4 -1 13 -6 8 -8 17 -4 20 3 4
4 7 0 7 -3 0 -9 -4 -12 -10z"/>
<path d="M1679 1688 c9 -12 10 -18 2 -18 -6 0 -11 -4 -11 -8 0 -5 6 -9 14 -9
17 0 15 23 -4 40 -12 10 -12 9 -1 -5z"/>
<path d="M1956 1691 c5 -5 20 -12 34 -15 l25 -7 -25 15 c-28 17 -50 21 -34 7z"/>
<path d="M2021 1697 c10 -9 89 -36 89 -31 0 6 -65 34 -81 34 -7 0 -10 -2 -8
-3z"/>
<path d="M1883 1642 c15 -10 24 -22 20 -27 -5 -4 -2 -5 6 0 11 6 9 12 -10 26
-13 10 -28 19 -34 19 -5 0 2 -8 18 -18z"/>
<path d="M1626 1600 c19 -31 59 -82 48 -60 -4 8 -16 27 -26 42 -11 16 -17 32
-14 36 3 5 -1 9 -9 9 -12 0 -12 -5 1 -27z"/>
<path d="M1674 1617 c3 -21 35 -61 51 -63 10 -2 5 10 -16 37 -33 42 -38 46
-35 26z"/>
<path d="M1410 1574 c0 -3 5 -14 11 -25 6 -11 8 -25 6 -32 -2 -7 -11 2 -20 18
-9 17 -16 26 -17 20 0 -5 9 -23 20 -40 11 -17 20 -23 20 -15 0 13 1 13 10 0
15 -23 12 5 -4 45 -13 31 -26 45 -26 29z"/>
<path d="M1615 1571 c-3 -6 -1 -11 5 -11 6 0 9 -4 6 -9 -3 -5 1 -12 9 -15 13
-5 14 -2 4 17 -16 30 -16 30 -24 18z"/>
<path d="M1690 1542 c6 -12 9 -26 6 -31 -3 -4 1 -8 9 -8 20 0 19 7 -6 37 -19
23 -19 23 -9 2z"/>
<path d="M1547 1509 c3 -24 10 -51 15 -59 6 -10 8 -4 5 20 -4 26 1 41 17 59
21 24 21 24 0 13 -15 -8 -24 -8 -32 0 -7 7 -9 -2 -5 -33z"/>
<path d="M1440 1470 c0 -5 5 -10 11 -10 5 0 8 -4 5 -9 -3 -5 1 -11 9 -14 12
-5 12 -2 3 18 -11 25 -28 34 -28 15z"/>
<path d="M1340 1461 c0 -13 56 -62 63 -55 9 9 -30 57 -49 60 -7 1 -14 -1 -14
-5z"/>
<path d="M2142 1392 c-34 -32 -62 -62 -62 -66 0 -10 19 5 90 69 35 31 38 33
16 8 -17 -19 -24 -33 -17 -33 11 0 11 -3 1 -15 -9 -11 -16 -12 -20 -5 -4 6
-15 1 -30 -15 -14 -15 -18 -25 -11 -25 11 0 11 -3 0 -17 -11 -15 17 10 121
106 3 2 -3 1 -13 -2 -11 -4 -16 -3 -12 3 10 16 14 50 7 50 -4 0 -35 -26 -70
-58z"/>
<path d="M1766 1383 c10 -18 22 -33 26 -33 14 0 9 10 -18 38 l-26 27 18 -32z"/>
<path d="M505 1305 c-55 -47 -106 -93 -115 -102 -10 -12 -7 -11 8 2 18 15 25
16 31 6 6 -10 12 -9 25 4 20 21 21 32 1 15 -9 -7 -18 -11 -20 -8 -3 3 35 40
85 82 78 67 99 87 88 86 -2 -1 -48 -39 -103 -85z"/>
<path d="M1270 1381 c0 -4 24 -22 53 -40 l52 -32 -35 31 c-61 54 -70 59 -70
41z"/>
<path d="M1355 1355 c47 -40 50 -41 52 -17 1 10 -8 24 -19 31 -11 7 -17 8 -13
2 9 -16 -11 -13 -29 4 -8 8 -18 15 -23 15 -4 0 10 -16 32 -35z"/>
<path d="M1730 1361 c13 -25 13 -34 -1 -25 -8 4 -8 0 0 -15 14 -25 23 -28 14
-4 -5 11 -3 14 6 9 8 -6 7 2 -3 23 -9 17 -19 31 -22 31 -2 0 0 -9 6 -19z"/>
<path d="M619 1360 c-1 -3 -1 -9 0 -13 1 -5 -3 -6 -9 -2 -12 8 -42 -13 -35
-25 2 -4 -10 -20 -27 -36 -17 -16 -28 -23 -24 -16 4 6 3 12 -2 12 -12 0 -43
-35 -36 -42 7 -8 -46 -49 -56 -43 -8 5 -35 -22 -35 -34 0 -3 -5 -5 -11 -3 -6
1 -19 -10 -29 -25 l-18 -28 29 25 c16 13 7 1 -21 -28 -27 -28 -54 -52 -60 -52
-5 0 -3 5 5 10 12 8 12 10 1 10 -11 0 -11 3 -1 15 7 9 19 14 27 11 9 -4 11 -1
7 6 -4 7 -3 8 4 4 8 -5 10 -1 6 9 -6 14 -9 14 -28 -4 -27 -26 -36 -26 -36 -3
1 18 47 58 57 48 7 -7 43 12 43 24 0 15 -100 -32 -112 -53 -15 -29 7 -97 32
-97 11 0 42 26 72 61 29 33 76 78 103 99 28 21 75 62 104 89 30 28 58 51 63
51 4 0 12 9 18 19 8 17 7 20 -10 18 -11 -1 -21 -4 -21 -7z"/>
<path d="M1240 1353 c0 -19 57 -46 66 -31 4 6 3 8 -3 5 -6 -4 -14 0 -17 9 -3
8 -11 12 -17 8 -6 -3 -15 0 -20 7 -6 10 -9 10 -9 2z"/>
<path d="M1590 1349 c0 -27 53 -106 86 -127 36 -24 118 -40 127 -26 3 5 -10
10 -28 10 -44 2 -121 56 -145 104 -21 40 -40 60 -40 39z"/>
<path d="M1690 1356 c0 -11 40 -86 45 -86 3 0 -4 19 -16 43 -23 45 -29 54 -29
43z"/>
<path d="M1556 1315 c14 -65 88 -149 141 -160 25 -5 25 -4 -8 14 -40 22 -90
80 -120 139 -18 35 -19 35 -13 7z"/>
<path d="M1203 1314 c15 -8 25 -19 22 -24 -3 -6 1 -7 9 -4 8 3 32 -4 55 -15
22 -12 44 -21 48 -21 4 0 -26 18 -67 40 -41 22 -79 40 -85 40 -5 -1 3 -8 18
-16z"/>
<path d="M540 1305 c-20 -24 -6 -28 15 -5 10 11 13 20 8 20 -6 0 -16 -7 -23
-15z"/>
<path d="M1324 1298 c-8 -13 22 -38 45 -38 10 1 4 7 -12 16 -15 8 -25 19 -22
24 4 6 4 10 1 10 -3 0 -8 -5 -12 -12z"/>
<path d="M1759 1275 c17 -33 31 -51 31 -40 0 6 -10 21 -21 35 -13 17 -17 18
-10 5z"/>
<path d="M861 1239 c-34 -56 -45 -170 -24 -259 10 -43 11 -44 20 -20 8 19 7
32 -4 53 -9 18 -12 46 -9 85 3 31 6 57 6 57 1 0 3 11 4 23 2 13 9 28 17 33 8
5 10 9 6 9 -4 0 -3 9 3 21 19 35 2 33 -19 -2z"/>
<path d="M1055 1230 c-19 -8 -19 -9 2 -9 12 -1 25 4 28 9 7 12 -2 12 -30 0z"/>
<path d="M1089 1213 c-23 -13 -22 -14 14 -8 24 4 44 2 53 -6 11 -9 18 -9 26
-1 8 8 8 13 -3 16 -38 12 -69 12 -90 -1z"/>
<path d="M955 1210 c-14 -7 -9 -8 19 -3 26 4 41 2 46 -7 5 -8 15 -10 26 -5 17
7 16 9 -6 15 -34 11 -61 10 -85 0z"/>
<path d="M1323 1213 c-20 -7 -15 -23 7 -23 11 0 20 4 20 9 0 13 -12 19 -27 14z"/>
<path d="M1220 1200 c-8 -5 -1 -10 19 -15 40 -9 47 -3 16 11 -13 6 -29 8 -35
4z"/>
<path d="M948 1173 c12 -2 30 -2 40 0 9 3 -1 5 -23 4 -22 0 -30 -2 -17 -4z"/>
<path d="M1872 1156 c-12 -6 -20 -17 -17 -23 2 -7 1 -13 -4 -13 -4 0 -21 -11
-37 -25 -21 -19 -24 -24 -9 -19 18 6 17 4 -5 -22 l-25 -29 27 24 c15 13 25 28
22 32 -2 4 7 16 21 25 13 9 22 20 19 25 -3 5 4 10 15 10 12 1 26 3 31 4 6 1
13 3 18 4 4 1 0 6 -8 11 -17 11 -18 11 -48 -4z"/>
<path d="M908 1153 c12 -2 30 -2 40 0 9 3 -1 5 -23 4 -22 0 -30 -2 -17 -4z"/>
<path d="M1932 1135 c-23 -29 -37 -33 -28 -8 6 15 4 15 -14 -2 -24 -22 -25
-26 -5 -19 25 10 17 -4 -25 -42 -22 -20 -38 -39 -35 -42 3 -3 12 3 20 14 9 12
14 14 15 6 0 -12 17 7 93 106 5 6 7 12 4 12 -3 0 -14 -11 -25 -25z"/>
<path d="M1263 1128 c-2 -5 37 -8 88 -8 51 0 89 3 85 7 -9 9 -167 10 -173 1z"/>
<path d="M935 1119 c58 -12 168 -11 160 1 -4 6 -48 10 -103 9 -79 -1 -89 -3
-57 -10z"/>
<path d="M1110 1122 c0 -10 41 -24 49 -17 6 7 0 11 -26 19 -13 4 -23 3 -23 -2z"/>
<path d="M1170 1108 c0 -5 35 -7 78 -7 78 2 69 6 -26 11 -28 2 -52 0 -52 -4z"/>
<path d="M1934 1095 c-19 -29 -20 -33 -28 -113 -3 -29 -1 -50 3 -47 5 2 11 30
13 61 3 40 10 61 23 70 11 8 15 14 9 14 -5 0 -2 5 6 10 11 7 12 12 3 21 -8 8
-16 4 -29 -16z"/>
<path d="M898 1093 c12 -2 30 -2 40 0 9 3 -1 5 -23 4 -22 0 -30 -2 -17 -4z"/>
<path d="M928 1073 c34 -2 88 -2 120 0 31 2 3 3 -63 3 -66 0 -92 -1 -57 -3z"/>
<path d="M1286 1071 c-5 -7 175 -4 199 4 6 2 -36 4 -92 4 -56 1 -104 -3 -107
-8z"/>
<path d="M1748 1062 c-1 -4 -18 -15 -36 -23 -30 -15 -31 -17 -13 -22 12 -3 19
-1 15 4 -3 5 1 9 8 9 7 0 24 9 38 20 19 15 21 20 8 20 -9 0 -18 -4 -20 -8z"/>
<path d="M883 1053 c20 -2 54 -2 75 0 20 2 3 4 -38 4 -41 0 -58 -2 -37 -4z"/>
<path d="M1080 1049 c-80 -5 -77 -6 38 -6 67 0 122 4 122 8 0 5 -17 8 -38 6
-21 -1 -76 -5 -122 -8z"/>
<path d="M1279 1037 c5 -5 26 -7 47 -5 l39 3 -47 5 c-26 3 -43 1 -39 -3z"/>
<path d="M1370 1040 c0 -5 9 -10 20 -10 11 0 20 5 20 10 0 6 -9 10 -20 10 -11
0 -20 -4 -20 -10z"/>
<path d="M1448 1043 c12 -2 32 -2 45 0 12 2 2 4 -23 4 -25 0 -35 -2 -22 -4z"/>
<path d="M986 1016 c4 -10 17 -16 35 -16 16 0 29 -4 29 -10 0 -5 9 -10 20 -10
19 0 20 -7 20 -110 0 -67 4 -110 10 -110 6 0 10 7 10 17 0 15 1 15 18 0 46
-42 112 -3 112 66 0 49 -14 75 -47 88 -19 7 -32 6 -49 -6 -24 -15 -24 -15 -24
28 l0 44 -57 7 c-31 4 -63 12 -70 18 -11 8 -12 7 -7 -6z m201 -108 c16 -21 22
-69 11 -100 -14 -39 -51 -39 -68 2 -25 61 23 142 57 98z"/>
<path d="M1940 1002 c0 -17 4 -34 10 -37 6 -4 7 6 3 27 -8 44 -13 48 -13 10z"/>
<path d="M1245 1010 c-16 -7 -11 -9 20 -9 22 0 47 4 55 9 19 13 -46 13 -75 0z"/>
<path d="M1727 986 c-20 -18 -37 -37 -37 -42 0 -4 18 10 40 31 22 21 40 40 40
42 0 7 -8 1 -43 -31z"/>
<path d="M1617 997 c-3 -8 -2 -20 3 -27 11 -18 42 -4 38 17 -4 22 -34 29 -41
10z"/>
<path d="M530 990 c0 -5 9 -10 20 -10 19 0 20 -7 20 -101 0 -96 -1 -100 -20
-94 -14 5 -20 2 -20 -9 0 -14 17 -16 110 -16 l110 0 0 45 c0 33 -4 45 -15 45
-10 0 -15 -10 -15 -34 l0 -34 -55 0 -55 1 0 43 c0 42 1 44 30 44 23 0 30 -4
30 -20 0 -11 5 -20 10 -20 6 0 10 23 10 50 0 28 -4 50 -10 50 -5 0 -10 -9 -10
-20 0 -16 -7 -20 -30 -20 -29 0 -30 2 -30 45 l0 45 55 0 55 0 0 -35 c0 -24 5
-35 15 -35 11 0 15 12 15 45 l0 45 -110 0 c-67 0 -110 -4 -110 -10z"/>
<path d="M1780 989 c0 -5 -4 -7 -10 -4 -6 4 -7 -1 -3 -11 4 -11 8 -13 11 -6 2
7 12 12 23 12 14 0 19 -7 19 -29 0 -28 -2 -29 -30 -21 -25 7 -35 5 -57 -14
-50 -43 -25 -156 35 -156 16 0 34 6 41 13 11 10 14 10 18 0 6 -15 63 -18 63
-3 0 6 -8 10 -17 10 -16 0 -18 11 -15 110 l3 110 -40 0 c-23 0 -41 -5 -41 -11z
m24 -82 c22 -16 26 -88 6 -112 -45 -54 -97 43 -54 103 18 26 24 27 48 9z"/>
<path d="M1443 968 c-18 -6 -33 -15 -33 -19 0 -11 -3 -12 55 11 52 20 35 26
-22 8z"/>
<path d="M1527 973 c-10 -9 -9 -23 1 -23 5 0 17 7 28 15 19 14 19 14 -2 15
-11 0 -24 -3 -27 -7z"/>
<path d="M953 925 c-14 -10 -24 -12 -28 -5 -9 14 -68 13 -83 -2 -9 -9 -12 -9
-12 0 0 7 -13 12 -30 12 -16 0 -30 -4 -30 -10 0 -5 7 -10 15 -10 12 0 15 -14
15 -65 0 -51 -3 -65 -15 -65 -8 0 -15 -4 -15 -10 0 -5 20 -10 45 -10 25 0 45
5 45 10 0 6 -7 10 -15 10 -11 0 -15 10 -14 38 2 64 12 87 39 87 23 0 25 -4 28
-59 2 -40 -1 -62 -10 -67 -21 -13 -2 -20 43 -16 33 3 39 6 24 11 -18 6 -19 14
-15 69 5 58 7 62 30 62 24 0 25 -3 28 -62 2 -39 -1 -63 -8 -63 -5 0 -10 -4
-10 -10 0 -5 20 -10 45 -10 25 0 45 5 45 10 0 6 -8 10 -17 10 -15 0 -18 10
-19 66 0 53 -4 69 -19 80 -24 18 -35 18 -62 -1z"/>
<path d="M1460 927 c-49 -25 -65 -96 -31 -138 17 -22 17 -27 5 -44 -13 -18
-44 -30 -44 -17 0 3 8 15 17 26 10 12 -20 -15 -65 -59 -55 -54 -78 -82 -69
-87 8 -5 33 13 70 50 31 31 57 53 57 48 0 -5 6 -4 13 2 12 10 18 12 37 12 6 0
10 5 10 11 0 5 -5 7 -11 3 -7 -4 -10 -1 -7 7 2 8 22 16 44 19 52 7 73 20 82
55 10 33 -1 87 -21 103 -22 18 -61 23 -87 9z m64 -29 c32 -45 14 -118 -29
-118 -29 0 -45 26 -45 71 0 34 24 69 46 69 7 0 20 -10 28 -22z m-134 -181 c0
-1 -25 -27 -57 -57 -39 -39 -50 -45 -34 -23 26 38 91 95 91 80z"/>
<path d="M1930 911 c-39 -38 -41 -91 -5 -126 31 -32 84 -34 110 -5 10 12 25
18 32 16 7 -3 13 -1 13 4 0 20 -39 21 -59 1 -36 -36 -70 -25 -85 27 -7 21 -5
22 59 22 64 0 66 1 60 23 -10 30 -35 53 -68 61 -23 5 -34 1 -57 -23z m74 -7
c27 -27 19 -39 -27 -39 -23 0 -41 4 -39 8 1 4 2 12 2 17 0 9 16 18 47 29 1 1
9 -6 17 -15z"/>
<path d="M2154 927 c-8 -4 -14 -13 -14 -19 0 -7 5 -6 15 2 12 10 15 10 15 -3
0 -25 22 -32 36 -12 7 10 19 15 26 12 21 -8 71 -143 64 -172 -7 -28 -35 -35
-32 -7 2 24 -38 23 -42 -2 -5 -23 14 -36 50 -36 31 0 49 28 89 144 15 43 30
71 42 74 34 9 16 22 -30 22 -41 -1 -46 -2 -31 -14 16 -12 16 -16 -1 -70 l-18
-57 -21 56 c-26 68 -26 65 -7 65 8 0 15 4 15 9 0 12 -137 19 -156 8z"/>
<path d="M1260 920 c0 -5 7 -10 15 -10 12 0 15 -14 15 -65 0 -59 -2 -65 -21
-65 -11 0 -17 -4 -14 -10 3 -5 28 -10 56 -10 27 0 49 5 49 10 0 6 -9 10 -20
10 -17 0 -20 7 -20 49 0 33 6 56 19 72 18 22 19 22 18 4 -1 -14 4 -20 18 -20
13 0 20 7 20 20 0 24 -38 33 -61 15 -10 -9 -14 -9 -14 -1 0 6 -13 11 -30 11
-16 0 -30 -4 -30 -10z"/>
<path d="M1590 920 c0 -5 6 -10 14 -10 11 0 15 -17 18 -65 3 -57 1 -65 -14
-65 -10 0 -18 -4 -18 -10 0 -5 23 -10 50 -10 28 0 50 5 50 10 0 6 -7 10 -15
10 -12 0 -15 15 -15 75 l0 75 -35 0 c-19 0 -35 -4 -35 -10z"/>
<path d="M2070 920 c0 -5 7 -10 15 -10 12 0 15 -14 15 -65 0 -51 -3 -65 -15
-65 -8 0 -15 -4 -15 -10 0 -5 23 -10 50 -10 28 0 50 5 50 10 0 6 -9 10 -19 10
-16 0 -18 5 -14 39 3 22 2 56 -1 75 -6 32 -11 36 -36 36 -17 0 -30 -4 -30 -10z"/>
<path d="M1537 728 c-19 -24 -57 -87 -86 -142 -29 -54 -62 -114 -73 -135 -30
-53 -88 -131 -99 -131 -5 0 7 22 27 50 19 27 33 54 29 60 -4 6 -1 9 7 8 8 -2
12 5 11 20 -2 13 1 21 6 18 9 -6 41 36 41 51 0 4 -5 0 -11 -10 -6 -9 -14 -15
-19 -12 -5 3 -19 -14 -31 -37 -12 -24 -33 -57 -46 -74 -13 -18 -22 -38 -21
-45 2 -10 -9 -14 -38 -15 -22 0 -47 -4 -54 -9 -7 -4 -16 -2 -21 6 -5 8 -9 10
-9 5 0 -5 -18 10 -40 34 -38 41 -39 44 -23 62 9 10 13 18 9 18 -4 0 -16 -10
-25 -22 l-18 -21 -32 22 c-17 12 -31 27 -31 32 0 5 52 62 117 127 105 105 117
122 42 54 -22 -20 -27 -21 -32 -8 -4 9 -3 15 1 13 4 -1 14 4 22 11 8 7 36 29
63 49 26 20 45 38 43 40 -2 3 -35 -18 -73 -47 -63 -48 -79 -68 -62 -80 4 -3
-25 -38 -63 -79 -66 -69 -72 -73 -85 -56 -11 17 -10 23 14 49 l28 31 -26 -23
c-26 -23 -49 -16 -33 10 4 6 3 8 -4 4 -6 -3 -13 -2 -17 3 -3 5 3 15 12 21 15
8 14 9 -8 4 -25 -5 -35 3 -37 29 0 5 -9 15 -19 22 -13 10 -18 26 -18 64 1 51
-7 65 -19 35 -18 -47 3 -103 65 -171 22 -24 39 -51 39 -62 0 -29 54 -86 98
-104 20 -8 53 -32 72 -51 29 -31 41 -36 75 -35 22 1 52 -2 66 -6 23 -6 32 0
65 40 22 25 81 121 132 213 51 92 103 177 114 190 12 12 19 22 15 22 -3 0 -21
-19 -40 -42z"/>
<path d="M1320 725 c-24 -26 -47 -34 -34 -12 5 8 3 8 -9 -2 -9 -7 -15 -17 -12
-21 3 -5 -11 -23 -31 -42 -44 -41 -168 -178 -161 -178 7 0 23 16 87 89 29 33
56 59 58 56 3 -2 -1 -13 -9 -22 -13 -16 -12 -17 4 -4 10 8 16 20 13 28 -3 7 0
13 7 13 7 0 39 27 72 60 33 33 55 60 49 60 -6 0 -21 -11 -34 -25z"/>
<path d="M1573 733 c-13 -38 -94 -201 -128 -258 -51 -86 -86 -205 -88 -291 -1
-112 36 -151 138 -141 28 2 60 1 73 -4 16 -6 32 -4 53 7 25 13 35 13 65 2 30
-11 39 -10 68 6 21 11 39 31 48 53 l13 35 27 -21 c49 -39 77 -37 146 9 40 27
78 44 105 47 30 4 49 13 67 35 27 31 113 67 162 68 39 0 68 17 112 66 74 84
78 152 14 241 -33 46 -109 113 -129 113 -18 0 -8 -16 21 -34 17 -9 27 -22 24
-28 -4 -7 -2 -8 5 -4 14 9 43 -12 35 -25 -3 -5 -1 -8 4 -7 6 2 9 0 9 -4 -1 -4
7 -14 18 -23 11 -9 13 -14 5 -10 -8 4 -6 -1 4 -9 11 -9 21 -22 22 -30 1 -7 5
-24 9 -36 5 -16 4 -20 -5 -15 -9 6 -9 2 0 -15 10 -19 10 -24 -3 -32 -9 -5 -14
-14 -11 -21 2 -7 -7 -19 -21 -27 -14 -7 -25 -19 -25 -26 0 -17 -30 -45 -41
-39 -5 4 -9 1 -9 -4 0 -15 -33 -14 -49 2 -11 10 -13 10 -7 0 10 -18 -4 -16
-28 4 -20 17 -20 17 -7 0 8 -9 11 -21 7 -25 -4 -4 -26 13 -48 36 -31 34 -43
41 -52 31 -7 -8 -7 -10 0 -6 13 7 87 -66 77 -77 -4 -4 -23 10 -41 31 l-34 38
26 -36 25 -37 -21 -5 c-12 -4 -28 -1 -35 5 -10 8 -13 5 -11 -13 2 -16 -2 -23
-10 -21 -8 1 -11 -1 -8 -6 3 -5 -5 -17 -16 -27 -21 -17 -22 -17 -36 1 -14 18
-14 18 -8 0 5 -15 2 -17 -14 -13 -11 3 -23 1 -26 -4 -3 -5 -10 -7 -15 -4 -5 4
-9 2 -9 -3 0 -13 -62 -60 -85 -64 -15 -2 -21 7 -31 42 -7 25 -12 38 -13 30 -1
-8 3 -30 8 -48 8 -25 7 -32 -5 -32 -8 0 -14 4 -14 10 0 5 -7 7 -15 4 -9 -4
-15 0 -15 10 0 12 -8 15 -35 13 -29 -2 -35 -6 -35 -26 0 -27 -34 -61 -61 -61
-13 0 -19 9 -22 33 l-4 32 -1 -32 c-1 -18 -6 -33 -12 -33 -6 0 -11 39 -12 93
-2 92 -2 92 -5 17 -4 -89 -12 -117 -23 -80 -7 22 -8 23 -9 4 -1 -24 -19 -41
-38 -38 -7 1 -21 2 -31 3 -15 1 -18 8 -16 34 l3 32 -7 -30 c-4 -16 -12 -30
-17 -30 -6 0 -16 -4 -22 -8 -8 -5 -13 -3 -13 5 0 9 -3 9 -8 2 -12 -19 -42 -12
-43 10 0 17 -2 18 -7 4 -6 -15 -9 -15 -27 -2 -15 11 -21 30 -25 79 -4 50 -2
64 7 61 9 -4 10 1 3 20 -12 32 -13 47 -1 40 5 -4 7 2 5 11 -7 25 31 129 46
125 6 -1 9 2 6 7 -8 13 4 42 15 35 5 -3 6 2 3 10 -3 9 5 26 19 40 14 14 23 27
20 29 -2 3 13 40 35 83 38 77 58 134 47 134 -3 0 -8 -8 -12 -17z"/>
<path d="M2150 736 c24 -22 60 -30 60 -13 0 14 -28 27 -60 27 -12 0 -12 -2 0
-14z"/>
<path d="M1479 723 c-32 -39 -44 -57 -32 -50 13 8 57 67 50 67 -2 0 -10 -8
-18 -17z"/>
<path d="M1652 683 c-27 -76 -36 -109 -28 -102 8 8 57 152 52 156 -2 2 -12
-23 -24 -54z"/>
<path d="M1880 734 c0 -5 6 -18 13 -28 13 -18 14 -18 21 0 4 10 4 15 0 11 -4
-4 -13 1 -20 11 -7 9 -14 12 -14 6z"/>
<path d="M2064 703 c22 -24 42 -40 45 -38 2 3 2 6 0 8 -2 1 -22 18 -44 37
l-40 35 39 -42z"/>
<path d="M2104 713 c2 -10 6 -17 10 -16 15 3 16 11 2 22 -12 10 -14 9 -12 -6z"/>
<path d="M1023 703 c0 -9 6 -9 21 -1 30 15 30 16 3 14 -13 0 -24 -6 -24 -13z"/>
<path d="M2006 699 c3 -6 9 -8 12 -5 8 9 31 -14 28 -27 -1 -7 -1 -9 1 -4 3 4
19 -2 36 -14 30 -20 30 -20 -5 15 -35 34 -87 59 -72 35z"/>
<path d="M983 687 c1 -7 -9 -12 -23 -13 -35 -1 -75 -23 -63 -35 6 -6 28 1 59
17 60 32 58 30 40 37 -9 4 -15 1 -13 -6z"/>
<path d="M1875 680 c3 -14 8 -37 11 -52 4 -16 11 -28 16 -28 10 0 3 28 -18 75
-12 25 -13 26 -9 5z"/>
<path d="M2144 682 c2 -9 6 -16 10 -15 27 7 29 11 9 21 -18 10 -21 9 -19 -6z"/>
<path d="M1015 669 c-17 -11 -23 -19 -15 -19 10 -1 4 -10 -15 -26 -32 -28 -18
-23 28 9 16 10 26 22 23 25 -3 3 -1 11 5 19 15 17 11 16 -26 -8z"/>
<path d="M1426 613 c-31 -43 -55 -82 -55 -88 0 -5 4 -2 10 8 6 9 15 15 20 11
5 -3 21 18 34 48 14 29 32 63 41 76 9 12 14 22 11 22 -4 0 -31 -35 -61 -77z"/>
<path d="M1070 649 l-35 -30 38 26 c33 24 43 35 34 35 -1 0 -18 -14 -37 -31z"/>
<path d="M1705 650 c-4 -17 -5 -34 -2 -36 2 -3 7 10 11 27 8 42 0 50 -9 9z"/>
<path d="M1800 635 c0 -25 4 -45 10 -45 5 0 9 20 8 45 -1 25 -6 45 -10 45 -4
0 -8 -20 -8 -45z"/>
<path d="M1926 642 c10 -17 22 -28 26 -26 11 7 -13 46 -32 52 -8 3 -7 -5 6
-26z"/>
<path d="M1996 635 c16 -22 43 -56 60 -75 45 -51 110 -118 91 -94 -10 11 -14
24 -10 27 8 9 44 -23 38 -34 -3 -4 -1 -10 4 -13 20 -13 3 25 -23 53 -15 16
-28 32 -27 35 3 16 0 18 -13 7 -11 -9 -27 3 -81 61 -37 40 -54 55 -39 33z"/>
<path d="M1299 583 c-35 -43 -56 -72 -46 -64 9 7 17 9 17 3 0 -12 -25 -34 -32
-27 -3 3 -13 -5 -24 -17 l-19 -23 24 20 c24 20 24 20 18 0 -5 -14 0 -11 18 10
14 16 24 35 22 40 -4 18 44 76 56 69 7 -4 9 -4 5 1 -4 4 2 21 13 36 38 54 12
29 -52 -48z"/>
<path d="M1412 639 c-7 -11 -16 -17 -21 -14 -5 2 -15 -3 -22 -13 -13 -15 -12
-16 4 -3 19 15 22 9 7 -20 -18 -33 -4 -21 24 22 15 22 26 42 24 44 -2 2 -9 -5
-16 -16z"/>
<path d="M1576 646 c5 -13 4 -17 -4 -12 -8 4 -10 2 -6 -8 3 -9 -5 -24 -20 -37
-27 -24 -37 -51 -11 -29 8 7 15 9 15 4 0 -5 9 11 21 35 14 32 17 47 9 55 -8 8
-9 6 -4 -8z"/>
<path d="M1843 613 c1 -29 4 -53 7 -53 3 0 6 -48 7 -106 1 -76 6 -111 16 -123
8 -9 18 -32 22 -51 5 -19 10 -30 12 -23 7 21 -17 94 -29 87 -8 -5 -9 4 -5 29
3 19 2 38 -1 42 -4 4 -8 48 -9 98 -1 51 -6 106 -12 122 -9 27 -10 24 -8 -22z"/>
<path d="M2145 636 c17 -14 34 -26 39 -26 11 0 11 0 -34 29 l-35 23 30 -26z"/>
<path d="M1110 553 l-85 -88 88 85 c48 46 87 86 87 87 0 8 -11 -3 -90 -84z"/>
<path d="M1716 609 c-8 -42 0 -50 9 -9 4 17 5 34 2 36 -2 3 -7 -10 -11 -27z"/>
<path d="M2070 637 c0 -13 79 -88 145 -136 39 -29 50 -35 25 -14 -25 21 -65
58 -90 83 -50 50 -80 76 -80 67z"/>
<path d="M2225 617 c17 -12 52 -42 78 -66 29 -27 45 -37 40 -25 -6 17 -5 18
13 4 19 -14 19 -14 0 8 -20 23 -32 30 -21 12 3 -5 2 -10 -3 -10 -13 0 -33 25
-26 32 5 6 -90 68 -104 68 -4 0 7 -11 23 -23z"/>
<path d="M993 594 l-28 -26 33 22 c29 20 39 30 28 30 -3 0 -18 -12 -33 -26z"/>
<path d="M1660 601 c-6 -12 -8 -27 -4 -33 5 -8 11 -1 16 17 9 36 3 44 -12 16z"/>
<path d="M2281 617 c2 -2 24 -18 49 -36 l45 -33 -40 36 c-22 20 -44 36 -49 36
-5 0 -7 -1 -5 -3z"/>
<path d="M2349 607 c16 -20 71 -61 71 -54 0 3 -19 20 -42 38 -24 19 -37 26
-29 16z"/>
<path d="M1759 597 c-16 -12 -35 -57 -24 -57 3 0 10 10 15 23 6 16 9 3 9 -50
1 -52 -3 -73 -11 -73 -9 0 -10 -3 -2 -8 7 -4 13 -54 16 -123 3 -64 10 -124 16
-135 9 -15 10 -8 4 31 -4 28 -7 130 -7 228 0 97 0 177 0 177 0 0 -7 -6 -16
-13z"/>
<path d="M1956 601 c-7 -11 50 -112 70 -124 8 -5 11 -14 7 -20 -5 -9 -2 -8 9
0 17 14 29 8 22 -12 -3 -7 -1 -16 5 -20 7 -4 8 0 4 11 -4 12 -2 15 8 12 8 -3
14 -9 14 -14 1 -16 26 -56 32 -50 4 3 11 2 17 -4 8 -6 12 -2 13 13 0 12 -1 16
-4 9 -4 -10 -8 -10 -19 -1 -17 14 -19 33 -2 23 7 -4 8 -3 4 5 -4 6 -11 9 -16
6 -5 -3 -16 5 -24 17 -9 12 -16 19 -16 14 0 -5 -7 -3 -15 4 -8 7 -15 9 -15 5
0 -4 -16 12 -35 35 -22 27 -33 49 -30 60 6 19 -20 47 -29 31z"/>
<path d="M1191 525 c-34 -42 -59 -80 -55 -86 3 -6 -2 -20 -13 -31 -10 -12 -13
-18 -6 -14 17 9 78 95 78 110 1 6 5 11 10 10 6 -1 26 17 45 40 26 31 27 35 7
17 -29 -27 -37 -19 -10 11 9 10 14 18 11 18 -3 0 -33 -34 -67 -75z"/>
<path d="M1681 558 c-10 -30 -10 -43 -2 -46 6 -2 11 -13 11 -25 0 -33 7 -16
13 33 4 33 3 40 -4 25 -7 -15 -8 -11 -4 18 8 49 1 47 -14 -5z"/>
<path d="M1912 592 c-9 -6 -7 -23 12 -76 13 -38 26 -64 30 -58 3 5 -3 35 -14
67 -11 32 -17 61 -14 66 6 11 3 11 -14 1z"/>
<path d="M2077 580 c9 -11 19 -17 21 -15 6 6 -18 35 -29 35 -5 0 -1 -9 8 -20z"/>
<path d="M1315 538 c-69 -97 -77 -110 -73 -114 3 -2 30 34 61 81 62 94 69 114
12 33z"/>
<path d="M1578 565 c-20 -26 -22 -35 -10 -35 9 0 35 50 30 55 -2 2 -11 -7 -20
-20z"/>
<path d="M1015 544 c-15 -14 -25 -27 -23 -29 3 -3 17 9 33 25 35 37 28 40 -10
4z"/>
<path d="M1813 450 c0 -118 1 -121 8 -46 4 44 4 100 0 125 -5 32 -8 8 -8 -79z"/>
<path d="M1328 508 c-65 -98 -70 -108 -64 -108 3 0 25 30 49 68 57 88 59 92
54 92 -2 0 -20 -24 -39 -52z"/>
<path d="M1636 544 c-3 -9 -4 -19 -1 -22 3 -3 5 1 5 9 0 11 2 11 10 -1 5 -8
10 -10 10 -5 0 6 -4 16 -9 23 -6 11 -10 10 -15 -4z"/>
<path d="M2030 540 c6 -11 16 -20 22 -20 6 0 3 9 -7 20 -10 11 -20 20 -22 20
-2 0 1 -9 7 -20z"/>
<path d="M1576 475 c-23 -60 -26 -78 -16 -90 7 -8 9 -28 6 -47 -3 -18 3 -6 14
27 20 61 26 97 10 60 -15 -35 -11 7 6 64 23 78 12 71 -20 -14z"/>
<path d="M2275 544 c6 -5 23 -20 40 -34 29 -24 29 -24 10 -2 -11 13 -29 28
-40 34 -11 6 -15 6 -10 2z"/>
<path d="M1726 503 c-4 -9 -2 -21 4 -27 7 -7 10 -2 10 17 0 31 -5 34 -14 10z"/>
<path d="M2380 512 c0 -5 9 -17 20 -27 20 -18 21 -18 14 0 -6 14 -4 16 7 10 8
-5 11 -5 6 1 -5 5 -12 9 -15 9 -4 0 -13 4 -19 8 -7 5 -13 4 -13 -1z"/>
<path d="M1875 486 c3 -15 9 -41 12 -57 3 -16 9 -29 14 -29 5 0 6 -6 4 -12 -3
-7 -1 -26 3 -43 l9 -30 5 27 c3 16 1 25 -5 21 -5 -3 -7 3 -4 13 3 11 -5 46
-19 79 -13 33 -22 47 -19 31z"/>
<path d="M2300 497 c0 -2 15 -16 33 -33 l32 -29 -29 33 c-28 30 -36 37 -36 29z"/>
<path d="M1970 487 c0 -14 34 -77 42 -77 4 0 4 -7 1 -17 -4 -11 -3 -14 5 -9 7
4 19 -9 32 -34 23 -45 35 -54 20 -14 -15 40 -100 168 -100 151z"/>
<path d="M2323 445 c34 -39 36 -57 2 -25 -14 13 -25 19 -25 14 0 -10 30 -32
41 -30 4 1 16 -7 27 -17 22 -20 44 -5 23 16 -9 9 -11 7 -5 -8 4 -11 -15 2 -42
31 -27 27 -37 36 -21 19z"/>
<path d="M1500 444 c-6 -15 -13 -30 -15 -34 -2 -4 2 -7 10 -7 17 0 28 24 18
39 -3 7 -1 8 5 4 7 -4 12 -3 12 3 0 23 -21 20 -30 -5z"/>
<path d="M2248 439 c13 -15 19 -28 14 -30 -6 -2 2 -13 16 -24 17 -11 22 -13
15 -4 -7 9 -11 18 -8 21 3 2 -10 18 -28 34 -28 25 -29 26 -9 3z"/>
<path d="M1206 425 c-9 -14 -23 -37 -32 -52 l-16 -28 20 24 c24 29 55 81 49
81 -3 0 -12 -11 -21 -25z"/>
<path d="M1162 409 c-13 -16 -20 -29 -15 -29 9 1 47 50 41 54 -1 2 -13 -10
-26 -25z"/>
<path d="M1951 428 c0 -7 5 -22 10 -33 8 -16 8 -15 4 8 -4 21 -2 27 6 21 8 -4
9 -3 5 4 -10 16 -26 15 -25 0z"/>
<path d="M2184 418 c-5 -7 -3 -8 5 -3 8 5 32 -10 64 -41 l52 -49 -50 53 c-52
55 -59 59 -71 40z"/>
<path d="M2406 421 c-7 -11 0 -15 18 -12 5 1 5 -6 2 -16 -6 -15 -5 -16 5 -5
11 10 10 15 -3 28 -11 11 -18 12 -22 5z"/>
<path d="M1215 380 c-9 -16 -13 -30 -11 -30 3 0 12 14 21 30 9 17 13 30 11 30
-3 0 -12 -13 -21 -30z"/>
<path d="M1650 388 c0 -9 5 -20 10 -23 6 -3 11 -18 11 -33 2 -23 2 -24 6 -5 2
12 -3 34 -11 50 -10 19 -15 22 -16 11z"/>
<path d="M1476 361 c4 -14 2 -21 -3 -18 -6 4 -16 -12 -22 -34 -7 -23 -15 -48
-18 -58 -4 -14 -3 -14 6 -1 9 13 11 13 11 0 1 -8 6 -4 11 9 5 13 7 33 3 44 -4
12 -2 17 4 13 14 -8 23 34 11 53 -8 12 -8 10 -3 -8z"/>
<path d="M1973 331 c1 -21 6 -37 11 -34 4 3 6 -7 4 -23 -3 -16 -3 -23 -1 -16
3 7 9 9 15 5 7 -4 9 0 5 10 -3 9 -11 34 -17 56 -14 51 -18 52 -17 2z"/>
<path d="M1693 310 c0 -25 2 -35 4 -22 2 12 2 32 0 45 -2 12 -4 2 -4 -23z"/>
<path d="M1616 307 c-3 -19 -2 -45 4 -58 9 -20 9 -18 5 16 -4 29 -3 36 4 25 9
-13 11 -12 11 5 0 11 -4 26 -9 33 -6 10 -10 4 -15 -21z"/>
<path d="M1831 333 c0 -4 4 -17 9 -28 8 -19 9 -19 9 2 1 12 -3 25 -9 28 -5 3
-10 3 -9 -2z"/>
<path d="M1481 254 c-12 -42 -20 -79 -17 -82 3 -3 6 3 7 14 0 18 1 18 10 -1 8
-17 9 -16 4 6 -2 15 2 50 11 79 8 28 14 54 11 56 -2 2 -14 -30 -26 -72z"/>
<path d="M1586 289 c-8 -42 0 -50 9 -9 4 17 5 34 2 36 -2 3 -7 -10 -11 -27z"/>
<path d="M1714 295 c-3 -13 -4 -30 -1 -37 3 -7 6 -3 6 10 1 12 6 22 11 22 6 0
10 7 10 15 0 24 -19 17 -26 -10z"/>
<path d="M1823 275 c0 -22 2 -30 4 -17 2 12 2 30 0 40 -3 9 -5 -1 -4 -23z"/>
<path d="M1546 262 c-3 -5 -8 -29 -10 -53 -5 -43 -4 -40 14 29 8 31 7 41 -4
24z"/>
<path d="M1950 254 c0 -10 5 -26 10 -34 8 -11 9 -7 4 15 -8 37 -14 45 -14 19z"/>
<path d="M1605 215 c4 -29 3 -36 -5 -25 -7 11 -8 1 -4 -35 4 -27 8 -51 9 -53
9 -11 14 108 5 128 -9 22 -10 19 -5 -15z"/>
<path d="M1692 210 c0 -19 2 -27 5 -17 2 9 2 25 0 35 -3 9 -5 1 -5 -18z"/>
<path d="M1911 225 c-1 -23 19 -99 24 -93 2 2 -2 28 -9 58 -8 30 -14 46 -15
35z"/>
<path d="M1833 195 c0 -22 2 -30 4 -17 2 12 2 30 0 40 -3 9 -5 -1 -4 -23z"/>
<path d="M1710 160 c0 -16 4 -30 8 -30 5 0 7 14 4 30 -2 17 -6 30 -8 30 -2 0
-4 -13 -4 -30z"/>
<path d="M1416 139 c-8 -42 0 -50 9 -9 4 17 5 34 2 36 -2 3 -7 -10 -11 -27z"/>
<path d="M1516 129 c-8 -42 0 -50 9 -9 4 17 5 34 2 36 -2 3 -7 -10 -11 -27z"/>
</g>
</svg>
